<svg width="1500" height="2000" viewBox="0 0 1920 2653" fill="none" xmlns="http://www.w3.org/2000/svg">
<path d="M1921 0V2258.5C1190.9 2404.02 254.018 2263.81 0.999964 2309.95C0.135619 2310.11 0.575823 2310.02 1.00003 2309.94V756C866.5 601 1489 291 1921 0Z" fill="#DAD7FE"/>
<path d="M802.43 2617.55C968.986 2534.23 867.038 2392.06 1149.92 2433.05C1645.45 2454.88 1693.37 2208.88 1637.85 2058.11C1582.34 1907.34 1328.54 1950.98 1357.62 1685.15C1407.06 1233.21 1036.4 1355.84 976.917 1400.8C917.433 1445.77 802.43 1510.57 579.034 1477.51C355.637 1444.45 322.591 1059.59 97.8722 1186.55C-126.846 1313.52 -73.9712 1591.25 -72.6493 1620.35C-71.3274 1649.44 14.5943 1793.6 -7.87751 1879.56C-169.146 2059.43 -129.49 2087.2 -95.121 2148.04C-67.626 2196.71 148.985 2300.58 253.853 2346.43C376.788 2423.13 390.006 2523.64 469.318 2591.1C583.872 2688.52 745.149 2640.91 802.43 2617.55Z" fill="#DAD7FE" stroke="white" stroke-width="5"/>
<ellipse cx="409" cy="1904.5" rx="583" ry="226.5" fill="#A872EE"/>
<line x1="847.283" y1="1757.41" x2="300.129" y2="2133.41" stroke="#FFB943"/>
<line x1="906.282" y1="1789.41" x2="403.286" y2="2133.41" stroke="#FFB943"/>
<line y1="-0.5" x2="418.483" y2="-0.5" transform="matrix(-0.828291 0.560298 -0.568724 -0.822528 975.916 1879)" stroke="#FFB943"/>
<line x1="969.279" y1="1843.42" x2="549.396" y2="2125.42" stroke="#FFB943"/>
<line x1="827.635" y1="1753.41" x2="273.29" y2="2133.41" stroke="#FFB943"/>
<line x1="894.283" y1="1780.41" x2="378.84" y2="2133.41" stroke="#FFB943"/>
<line x1="982.278" y1="1863.42" x2="602.517" y2="2117.54" stroke="#FFB943"/>
<line y1="-0.5" x2="542.689" y2="-0.5" transform="matrix(-0.828689 0.559709 -0.570317 -0.821425 965.98 1829.25)" stroke="#FFB943"/>
<line x1="879.283" y1="1771.41" x2="351.18" y2="2133.41" stroke="#FFB943"/>
<line y1="-0.5" x2="582.049" y2="-0.5" transform="matrix(-0.826443 0.56302 -0.567766 -0.82319 930.535 1805.29)" stroke="#FFB943"/>
<line x1="992.279" y1="1896.42" x2="685.177" y2="2102.48" stroke="#FFB943"/>
<line x1="987.28" y1="1932.41" x2="764.172" y2="2083" stroke="#FFB943"/>
<line x1="976.279" y1="1956.41" x2="808.279" y2="2069.41" stroke="#FFB943"/>
<line x1="805.793" y1="1753.41" x2="260.28" y2="2122.41" stroke="#FFB943"/>
<line y1="-0.5" x2="554.43" y2="-0.5" transform="matrix(-0.829099 0.559102 -0.569709 -0.821846 954.24 1823.02)" stroke="#FFB943"/>
<line x1="863.284" y1="1763.41" x2="326.263" y2="2133.41" stroke="#FFB943"/>
<line x1="918.283" y1="1796.41" x2="427.091" y2="2133.41" stroke="#FFB943"/>
<line x1="987.282" y1="1883.41" x2="655.976" y2="2109.47" stroke="#FFB943"/>
<line x1="992.281" y1="1911.41" x2="719.429" y2="2096.43" stroke="#FFB943"/>
<line y1="-0.5" x2="568.794" y2="-0.5" transform="matrix(-0.829116 0.559077 -0.569684 -0.821864 941.596 1815)" stroke="#FFB943"/>
<line x1="976.279" y1="1853.41" x2="578.294" y2="2121.41" stroke="#FFB943"/>
</svg>
