<svg xmlns="http://www.w3.org/2000/svg" width="103.892" height="25.205" viewBox="0 0 103.892 25.205"><defs><style>.a{fill:#fff;}</style></defs><path class="a" d="M641.688,67.406l-5.13,4.736,5.92-21.9,2.565,4.933,1.381-4.736,5.331,10.854L640.308,72.145ZM621.07,71.979h0c.01-.069.257-1.687,1.194-1.989.025,0,2.438-.062,2.759-1.6a1.769,1.769,0,0,0,.027-.186c.16-1.733-.392-14.792-.4-14.924h4.576l.2,8.756,5.174-8.756h4.377l-9.75,16.714-1.393,1.791-6.764.2ZM607.937,68.2A3.1,3.1,0,0,1,605.9,66.6c-.546-1.178-.263-2.784.842-4.773a3.2,3.2,0,0,1,1.346-1.172,15.837,15.837,0,0,1,6.418-1.612,3.8,3.8,0,0,0,2.584-1.013,1.732,1.732,0,0,0,.2-1.574,2.994,2.994,0,0,0-1.766-.546,4.5,4.5,0,0,0-2.811,1.142h-4.379v0a6.563,6.563,0,0,1,1.336-1.883,6.984,6.984,0,0,1,1.9-1.356,7.708,7.708,0,0,1,2.929-.735,19.77,19.77,0,0,1,2-.1,12.624,12.624,0,0,1,3.348.379,2.864,2.864,0,0,1,2.213,1.708c0,.008.31.815-.4,3.582-.017.069-1.716,6.934-1.99,8.756l-4.179.2c0-.009-.372-.887-.992-.992a18.507,18.507,0,0,1-6.153,1.606c-.142,0-.281-.01-.412-.019Zm3.183-5.373c-.4.9-.467,1.569-.2,1.977a1.266,1.266,0,0,0,1.1.458,2.665,2.665,0,0,0,.5-.047,4.117,4.117,0,0,0,3.007-1.478,3.509,3.509,0,0,0,.578-2.5,10.8,10.8,0,0,0-4.974,1.591Zm-38.8,3.781a9.654,9.654,0,0,1,0-3.579l2.389-9.156a.688.688,0,0,1,.6-.6h3.781c.379.007.6.071.649.193a.217.217,0,0,1-.052.205c-.081.22-1.974,5.431-2.189,8.159,0,.058-.009.119-.012.18a2.324,2.324,0,0,0,.422,1.736,1.085,1.085,0,0,0,.806.325,1.353,1.353,0,0,0,.378-.051,2.868,2.868,0,0,0,2.346-1.508,5.66,5.66,0,0,0,.636-1.477l1.592-5.174a5.4,5.4,0,0,1,1.194-2.586h3.583c.31.022.5.108.558.255.1.228-.148.528-.159.541L585.253,67.4l-4.377.2.2-.8c.231-.793-.195-.992-.2-1A12.455,12.455,0,0,0,578.886,67,6.679,6.679,0,0,1,575.3,68.2a4.12,4.12,0,0,1-2.984-1.591Zm-14.527.992h-5.174l5.373-19.5,11.541.2a6,6,0,0,1,1.716.673A3.329,3.329,0,0,1,572.358,50a2.479,2.479,0,0,1,.358,1.674,7.123,7.123,0,0,1-.424,2.488,6.977,6.977,0,0,1-1.229,2.157,7.449,7.449,0,0,1-2.526,1.922,1.381,1.381,0,0,0,0,.6c.066.042,1.638,1.064,1.592,2.189l-.8,6.566h-4.975s-.376-.035-.4-.6l.8-4.773a1.681,1.681,0,0,0-1.393-1.392l-2.985-.2c-.008,0-.795.21-1.194,1.791L557.792,67.6h0Zm4.179-15.126-.992,3.781c0,.006.016.585,1.393.6h.011c.116,0,.242,0,.372,0,1.042,0,4.454-.115,4.587-1.6V53.275a.347.347,0,0,0-.117-.235c-.223-.24-.94-.642-3.235-.642h0c-.591,0-1.273.027-2.013.081Zm31.44,14.93h-5.173l5.174-19.3,10.945.2a4.636,4.636,0,0,1,2.151.852,3.951,3.951,0,0,1,1.126,1.342,4.5,4.5,0,0,1,.5,1.785,7.918,7.918,0,0,1-.748,3.68,10.112,10.112,0,0,1-1.86,2.681,12.473,12.473,0,0,1-2.768,2.2c-1.348.536-5.59.594-5.771.6a4.219,4.219,0,0,0-1.989.4L593.408,67.4h0Zm4.179-14.924c-1.142,3.843-1.105,4.473-1.036,4.566a.032.032,0,0,0,.025.015.03.03,0,0,0,.016,0h2.832c2.372,0,2.736-1.182,2.739-1.194a2.521,2.521,0,0,0,.584-1.9,2.117,2.117,0,0,0-.783-1.28,11.1,11.1,0,0,0-2.865-.221C598.338,52.457,597.656,52.476,597.59,52.479Zm54.158-3.158a2.38,2.38,0,1,1,2.381,2.38A2.381,2.381,0,0,1,651.749,49.32Zm.422,0a1.959,1.959,0,1,0,1.959-1.959,1.959,1.959,0,0,0-1.959,1.959Zm2.006.756h-.17V48.754h.257l.38,1.116.378-1.116h.254v1.323H655.1V48.961l-.377,1.116h-.177l-.381-1.116v1.116h0Zm-.979,0h-.18V48.912h-.445v-.158h1.072v.158H653.2v1.165h0Z" transform="translate(-552.618 -46.94)"/></svg>