<svg xmlns="http://www.w3.org/2000/svg" width="84.25" height="26.696" viewBox="0 0 84.25 26.696"><defs><style>.a{fill:#fff;}</style></defs><path class="a" d="M278.381,155.6c-.937-.013-1.147-.229-1.149-1.178q-.01-7.345-.008-14.692c0-1.074.006-1.074-1.027-1.075-2.108,0-2.108,0-2.108-2.118,0-.739.009-1.477,0-2.216s.281-1.116,1.061-1.13a5.1,5.1,0,0,0,4.508-2.526,3.879,3.879,0,0,1,1.612-1.591c.834-.384,1.342-.082,1.356.821.014.93.017,1.86,0,2.79-.008.384.113.54.514.518.341-.019.682-.014,1.026-.009.179,0,.356,0,.535,0a.806.806,0,0,1,.921.9c.008,1.2.012,2.407.006,3.611a.834.834,0,0,1-.966.946H284.5c-1.841.029-1.841.029-1.841,1.907v6.4q0,3.734,0,7.469c0,.979-.186,1.159-1.148,1.168q-.852.007-1.705.009Q279.09,155.607,278.381,155.6Zm-17.862-.065c-1.017,0-1.245-.239-1.249-1.264s.02-2.082,0-3.121c-.019-.767.338-1.107,1.083-1.108,1.645,0,3.289-.024,4.933-.023.635,0,1.211-.12,1.21-.885s-.583-.873-1.215-.883c-.293,0-.588,0-.881,0a10.4,10.4,0,0,1-2.718-.2,5.1,5.1,0,0,1-4.036-4.8c-.1-3.038-.047-6.075-.05-9.113a.847.847,0,0,1,.977-.943c.533,0,1.067,0,1.6,0,.59,0,1.178,0,1.77,0,.876.008,1.126.254,1.13,1.126.009,2.327,0,4.654.007,6.981,0,1.228.216,1.446,1.408,1.453,1.942.012,1.984-.03,1.984-1.953,0-2.135,0-4.271,0-6.406,0-1,.2-1.194,1.211-1.2q1.48-.011,2.96,0c1.1,0,1.3.2,1.3,1.282q0,3.943,0,7.885c0,2.464.014,4.928,0,7.392-.025,3.567-2.253,5.765-5.831,5.782q-1.4.006-2.8.006t-2.795,0Zm39.962-.018c-.905,0-1.808,0-2.713,0-1.022,0-1.268-.262-1.27-1.349q-.01-6.943-.014-13.882c0-1.221-.475-1.764-1.526-1.794-1.246-.034-1.792.5-1.792,1.786q0,6.943,0,13.882c0,1.116-.161,1.275-1.288,1.281h-1.3c-.608,0-1.215,0-1.822.006-.709.007-1.054-.291-1.054-1.033q.01-10.1-.006-20.209c0-.726.334-1.076,1.027-1.086.614-.009,1.229-.007,1.843-.006.536,0,1.073,0,1.612,0,.725-.009.968.461,1.061,1.136a5.926,5.926,0,0,1,5.733-.906,4.757,4.757,0,0,1,1.609.961c.33.293.537.291.9.012,2.452-1.9,6.214-1.082,8.2.705a5.278,5.278,0,0,1,1.136,2.595,43.066,43.066,0,0,1,0,4.7v12.327c0,.248-.487.566-.487.811-.344,0-3.481-.013-3.826-.016-.93-.009-1.152-.23-1.156-1.178q-.015-7.024-.019-14.046c0-1.244-.49-1.747-1.651-1.742s-1.656.521-1.658,1.745q0,6.9,0,13.8c0,1.277-.2,1.5-1.464,1.5Zm-73.194-.062c-.771.022-.649-.759-.649-1.125V133.19c2.261,0,5.517,0,7.782.006,3.306.017,5.3,1.943,5.348,5.224.03,1.971.062,3.946-.058,5.91a4.719,4.719,0,0,1-4.742,4.525c-1.122.042-2.247.042-3.369.007-.516-.015-.647.156-.639.65.025,1.588.009,3.176,0,4.764,0,.988-.263,1.23-1.288,1.235h-.014C229.332,155.508,227.575,155.453,227.288,155.453Zm3.676-16.155c.044.569.01,1.144.009,1.718,0,.6.017,1.2,0,1.8-.015.393.058.612.529.583.346-.023.694-.019,1.042-.014.254,0,.506.006.759,0a.9.9,0,0,0,.971-.976c.016-.9.009-1.8,0-2.7a.93.93,0,0,0-1.012-1.027c-.232-.008-.466,0-.7,0-.314,0-.627.009-.939-.013q-.062,0-.124,0C231.1,138.661,230.928,138.822,230.964,139.3ZM246.6,155.412c-3.491-.024-5.44-1.966-5.471-5.444-.014-1.449-.03-2.9.017-4.349a5.213,5.213,0,0,1,5.384-5.153c.793-.02,1.589-.024,2.382,0,.712.022,1.086-.286,1.112-1S249.7,138.4,248.9,138.4c-.779-.009-1.56-.007-2.34,0-.644,0-1.288,0-1.932,0-1.071-.007-1.291-.237-1.295-1.31,0-.957,0-1.914,0-2.873,0-.578.232-1,.839-.989.763.014,1.527,0,2.294-.023a26.117,26.117,0,0,1,4.762.175,4.738,4.738,0,0,1,4.306,4.715c.017.19.044.381.046.572v7.059h.01c0,2.38.014,4.76,0,7.14-.014,1.764-.812,2.547-2.573,2.553q-1.819.007-3.637.009-1.385,0-2.772-.009Zm.141-9.192a1.371,1.371,0,0,0-.053.565c0,.493,0,.985,0,1.478,0,2.294.051,2.335,2.351,2.228a.939.939,0,0,0,1.03-1.085c-.009-.464,0-.93,0-1.395s0-.93,0-1.395c.01-.627-.3-1.067-.908-1.019a3.808,3.808,0,0,1-.7-.038,5.041,5.041,0,0,0-.558-.043,1.163,1.163,0,0,0-1.159.7Z" transform="translate(-226.632 -128.91)"/></svg>