<svg xmlns="http://www.w3.org/2000/svg" width="71.609" height="26.737" viewBox="0 0 71.609 26.737"><defs><style>.a{fill:#fff;}</style></defs><path class="a" d="M66.868,146.153h2.865s4.237,6.622,15.6,7c0,0,10.337-.593,13.686-5.093l-1.592-1.591H104.1s-5.311,7.9-18.778,9.23C85.327,155.7,71.191,155.146,66.868,146.153Zm41.375-1.273h-.02a2.971,2.971,0,0,1-2.538-1.432,4.794,4.794,0,0,1-.624-1.431V129.285h3.183v11.457c.021.945.609.955.634.955h8.913a.818.818,0,0,0,.637-.955V129.285h3.183V141.7a3.065,3.065,0,0,1-1.6,2.449,6.771,6.771,0,0,1-1.583.733Zm-19.093,0v-2.865h9.866a.666.666,0,0,0,.544-.239.96.96,0,0,0,.092-.715v-1.592H89.783a4.176,4.176,0,0,1-2.015-.8,3.649,3.649,0,0,1-1.04-1.29,4.468,4.468,0,0,1-.446-1.728v-6.683h3.183v6.683a.682.682,0,0,0,.151.511.5.5,0,0,0,.362.137.594.594,0,0,0,.124-.012h9.863v-7h2.865v11.457A4.122,4.122,0,0,1,101.4,144.2a3.444,3.444,0,0,1-1.441.682Zm-18.141,0a5.177,5.177,0,0,1-1.441-.573,2.631,2.631,0,0,1-1.426-2.294v-4.455a3.933,3.933,0,0,1,.52-1.222,3.706,3.706,0,0,1,2.344-1.643h10.5V133.1c0-.033.05-.806-.637-.955h-10.5v-3.183H81.189a4.416,4.416,0,0,1,1.606.546,3.768,3.768,0,0,1,1.9,2.955v9.23a5.068,5.068,0,0,1-.759,1.58,3.705,3.705,0,0,1-3.06,1.6Zm0-6.087v1.99a1.24,1.24,0,0,0,1.24,1.24H80.27a1.24,1.24,0,0,0,1.24-1.24v-3.23H72.249a1.24,1.24,0,0,0-1.24,1.24ZM53.184,144.88H50V132.468a3.093,3.093,0,0,1,1.264-2.438,5.013,5.013,0,0,1,1.281-.744h11.14a3.985,3.985,0,0,1,2.7,1.989,2.03,2.03,0,0,1,.162,1.193V138.2a3.431,3.431,0,0,1-.626,2.012,3.347,3.347,0,0,1-1.309,1.04,5.115,5.115,0,0,1-1.884.449H53.184v3.182h0Zm0-11.486v5.449h9.259a1.24,1.24,0,0,0,1.24-1.24v-4.209a1.24,1.24,0,0,0-1.24-1.24H54.426a1.24,1.24,0,0,0-1.24,1.24Z" transform="translate(-50 -128.964)"/></svg>